<?xml version="1.0" encoding="UTF-8"?>
<!DOCTYPE svg PUBLIC "-//W3C//DTD SVG 1.1//EN" "http://www.w3.org/Graphics/SVG/1.1/DTD/svg11.dtd">
<!-- Creator: CorelDRAW 2018 (64 Bit) -->
<svg xmlns="http://www.w3.org/2000/svg" xml:space="preserve" width="60px" height="60px" version="1.1" style="shape-rendering:geometricPrecision; text-rendering:geometricPrecision; image-rendering:optimizeQuality; fill-rule:evenodd; clip-rule:evenodd"
viewBox="0 0 60 60"
 xmlns:xlink="http://www.w3.org/1999/xlink">
 <defs>
  <style type="text/css">
   <![CDATA[
    .fil0 {fill:none}
    .fil1 {fill:#CBCDE2}
   ]]>
  </style>
 </defs>
 <g id="Camada_x0020_1">
  <metadata id="CorelCorpID_0Corel-Layer"/>
  <polygon class="fil0" points="-137.74,-42.5 -62.73,-42.5 -62.73,32.51 -137.74,32.51 "/>
  <path class="fil1" d="M32.5 7.5c-12.42,0 -22.5,10.07 -22.5,22.5l-7.5 0 9.72 9.73 0.18 0.35 10.1 -10.08 -7.5 0c0,-9.67 7.83,-17.5 17.5,-17.5 9.68,0 17.5,7.82 17.5,17.5 0,9.68 -7.82,17.5 -17.5,17.5 -4.82,0 -9.2,-1.97 -12.35,-5.15l-3.55 3.55c4.08,4.08 9.68,6.6 15.9,6.6 12.43,0 22.5,-10.07 22.5,-22.5 0,-12.43 -10.07,-22.5 -22.5,-22.5zm-2.5 12.5l0 12.5 10.7 6.35 1.8 -3.02 -8.75 -5.2 0 -10.63 -3.75 0z"/>
 </g>
</svg>
