<?xml version="1.0" encoding="UTF-8"?>
<!DOCTYPE svg PUBLIC "-//W3C//DTD SVG 1.1//EN" "http://www.w3.org/Graphics/SVG/1.1/DTD/svg11.dtd">
<!-- Creator: CorelDRAW 2018 (64 Bit) -->
<svg xmlns="http://www.w3.org/2000/svg" xml:space="preserve" width="60px" height="60px" version="1.1" style="shape-rendering:geometricPrecision; text-rendering:geometricPrecision; image-rendering:optimizeQuality; fill-rule:evenodd; clip-rule:evenodd"
viewBox="0 0 60 60"
 xmlns:xlink="http://www.w3.org/1999/xlink">
 <defs>
  <style type="text/css">
   <![CDATA[
    .fil0 {fill:none}
    .fil1 {fill:#CBCDE2}
   ]]>
  </style>
 </defs>
 <g id="Camada_x0020_1">
  <metadata id="CorelCorpID_0Corel-Layer"/>
  <polygon class="fil0" points="-137.74,-42.5 -62.73,-42.5 -62.73,32.51 -137.74,32.51 "/>
  <path class="fil1" d="M17.5 45c-2.75,0 -4.97,2.25 -4.97,5 0,2.75 2.22,5 4.97,5 2.75,0 5,-2.25 5,-5 0,-2.75 -2.25,-5 -5,-5l0 0zm-15 -40l0 5 5 0 9 18.97 -3.38 6.13c-0.39,0.7 -0.62,1.53 -0.62,2.4 0,2.75 2.25,5 5,5l30 0 0 -5 -28.95 0c-0.35,0 -0.62,-0.27 -0.62,-0.62l0.07 -0.3 2.25 -4.08 18.63 0c1.87,0 3.52,-1.02 4.37,-2.57l8.95 -16.23c0.2,-0.35 0.3,-0.77 0.3,-1.2 0,-1.37 -1.12,-2.5 -2.5,-2.5l-36.97 0 -2.35 -5 -8.18 0zm40 40c-2.75,0 -4.97,2.25 -4.97,5 0,2.75 2.22,5 4.97,5 2.75,0 5,-2.25 5,-5 0,-2.75 -2.25,-5 -5,-5z"/>
 </g>
</svg>
